# File produced by Open Asset Import Library (http://www.assimp.sf.net)
# (assimp v3.1.24787357)

mtllib HayBale.mtl

# 90 vertex positions
v  -21.2869 0.861074 -37.6014
v  -20.0064 2.1677 -18.2787
v  -22.2185 4.0585 -18.2787
v  -23.6518 2.88253 -37.6014
v  21.2869 2.88253 39.6228
v  -21.2869 2.88253 39.6228
v  -21.2869 0.861074 37.6014
v  21.2869 0.861074 37.6014
v  -23.6518 39.2727 37.6014
v  -23.2095 30.7893 36.8951
v  -20.8889 30.7893 38.8785
v  -21.2869 39.2727 39.6228
v  23.6518 2.88253 -37.6014
v  22.2185 4.0585 -18.2787
v  20.0064 2.1677 -18.2787
v  21.2869 0.861074 -37.6014
v  21.2869 39.2727 39.6228
v  20.889 30.7893 38.8785
v  23.2095 30.7893 36.895
v  23.6518 39.2727 37.6014
v  -23.6518 39.2727 -37.6014
v  -22.2185 38.0967 -18.2787
v  -20.0064 39.9875 -18.2787
v  -21.2869 41.2942 -37.6014
v  21.2869 41.2942 37.6014
v  -21.2869 41.2942 37.6014
v  21.2869 41.2942 -37.6014
v  20.0064 39.9875 -18.2787
v  22.2185 38.0967 -18.2787
v  23.6518 39.2727 -37.6014
v  -23.2095 30.7893 -36.895
v  -21.2869 39.2727 -39.6228
v  -20.889 30.7893 -38.8785
v  21.2869 39.2727 -39.6228
v  20.8889 30.7893 -38.8785
v  23.2095 30.7893 -36.8951
v  -21.2869 2.88252 -39.6228
v  21.2869 2.88252 -39.6228
v  21.8041 30.1387 -17.9314
v  -21.8041 30.1387 -17.9314
v  -23.6518 2.88253 37.6014
v  23.6518 2.88253 37.6014
v  -21.8089 21.1635 40.6516
v  -20.67 11.5707 38.4342
v  20.67 11.5707 38.4342
v  21.8089 21.1635 40.6516
v  22.964 11.5707 36.4733
v  24.2352 21.1635 38.5776
v  24.2352 21.1635 -38.5776
v  22.7641 21.1579 -18.7552
v  21.5747 12.2003 -17.7264
v  22.964 11.5707 -36.4733
v  20.67 11.5707 -38.4342
v  21.8089 21.1635 -40.6516
v  -20.67 11.5707 -38.4342
v  -21.8089 21.1635 -40.6516
v  -22.964 11.5707 -36.4733
v  -24.2352 21.1635 -38.5776
v  -21.5747 12.2003 -17.7264
v  -22.7641 21.1579 -18.7552
v  -24.2352 21.1635 38.5776
v  -22.964 11.5707 36.4733
v  -21.5747 12.2003 19.8394
v  -24.2305 10.9968 -0.424048
v  -24.9585 1.81055 -0.438601
v  -22.2185 4.05851 20.4489
v  -22.7641 21.1579 20.978
v  -25.5762 21.1685 -0.450647
v  -21.8041 30.1387 20.0688
v  -24.4906 31.3823 -0.428951
v  -22.2185 38.0967 20.4489
v  -24.9585 40.3447 -0.438601
v  -20.0064 39.9875 20.4489
v  -22.4542 42.4852 -0.438601
v  20.0064 39.9875 20.4489
v  22.4542 42.4852 -0.438601
v  22.2185 38.0967 20.4489
v  24.9585 40.3447 -0.438601
v  21.8041 30.1387 20.0688
v  24.4906 31.3823 -0.428954
v  22.7641 21.1579 20.978
v  25.5762 21.1685 -0.450652
v  21.5747 12.2003 19.8394
v  24.2305 10.9968 -0.424051
v  22.2185 4.05851 20.4489
v  24.9585 1.81055 -0.438601
v  20.0064 2.1677 20.4489
v  22.4542 -0.329996 -0.438601
v  -20.0064 2.1677 20.4489
v  -22.4542 -0.329996 -0.438601

# 138 UV coordinates
vt 0.00589743 0.0115927 0
vt 0.0853658 0.0221248 0
vt 0.0853658 0.0373659 0
vt 0.00589743 0.0278872 0
vt 0.633178 0.371191 0
vt 0.633178 0.664515 0
vt 0.616884 0.664515 0
vt 0.616884 0.371191 0
vt 0.926502 0.680809 0
vt 0.858121 0.677761 0
vt 0.858121 0.661773 0
vt 0.926502 0.664515 0
vt 0.639408 0.0278872 0
vt 0.55994 0.0373659 0
vt 0.55994 0.0221248 0
vt 0.639408 0.0115927 0
vt 0.926502 0.371191 0
vt 0.858121 0.373933 0
vt 0.858121 0.357945 0
vt 0.926502 0.354897 0
vt 0.00589743 0.321211 0
vt 0.0853658 0.311733 0
vt 0.0853658 0.326972 0
vt 0.00589743 0.337505 0
vt 0.942796 0.371191 0
vt 0.942796 0.664515 0
vt 0.639408 0.337505 0
vt 0.55994 0.326972 0
vt 0.55994 0.311733 0
vt 0.639408 0.321211 0
vt 0.369852 0.677759 0
vt 0.301471 0.680804 0
vt 0.301471 0.664511 0
vt 0.369852 0.661769 0
vt 0.301471 0.371187 0
vt 0.285178 0.664511 0
vt 0.285178 0.371187 0
vt 0.369852 0.373929 0
vt 0.301471 0.354894 0
vt 0.369852 0.357939 0
vt 0.611087 0.371187 0
vt 0.611087 0.664511 0
vt 0.594794 0.664511 0
vt 0.594794 0.371187 0
vt 0.31117 0.989953 0
vt 0.231701 0.98113 0
vt 0.231701 0.705452 0
vt 0.31117 0.696629 0
vt 0.398209 0.981143 0
vt 0.318741 0.989965 0
vt 0.318741 0.696642 0
vt 0.398209 0.705464 0
vt 0.558509 0.247586 0
vt 0.636502 0.25283 0
vt 0.00880192 0.25283 0
vt 0.0867936 0.247586 0
vt 0.633178 0.680809 0
vt 0.633178 0.354897 0
vt 0.594794 0.680804 0
vt 0.594794 0.354894 0
vt 0.780532 0.668113 0
vt 0.70321 0.660266 0
vt 0.70321 0.375441 0
vt 0.780532 0.367595 0
vt 0.70321 0.359636 0
vt 0.780532 0.350877 0
vt 0.643423 0.175241 0
vt 0.561898 0.175197 0
vt 0.557669 0.102993 0
vt 0.634768 0.0979188 0
vt 0.524764 0.375439 0
vt 0.447438 0.367593 0
vt 0.447438 0.350876 0
vt 0.524764 0.359632 0
vt 0.524764 0.660259 0
vt 0.447438 0.668105 0
vt 0.524764 0.676066 0
vt 0.447438 0.684822 0
vt 0.00188263 0.175241 0
vt 0.0105361 0.0979188 0
vt 0.087637 0.102993 0
vt 0.0834058 0.175197 0
vt 0.780532 0.684829 0
vt 0.70321 0.67607 0
vt 0.242133 0.102993 0
vt 0.158796 0.0932927 0
vt 0.158736 0.0192464 0
vt 0.24464 0.0373659 0
vt 0.246815 0.175197 0
vt 0.158687 0.175282 0
vt 0.243076 0.247586 0
vt 0.158776 0.25761 0
vt 0.24464 0.311733 0
vt 0.158736 0.329852 0
vt 0.24464 0.326972 0
vt 0.158736 0.347106 0
vt 0.158329 0.997995 0
vt 0.0724267 0.98113 0
vt 0.0724267 0.705452 0
vt 0.158329 0.688587 0
vt 0.486568 0.347106 0
vt 0.400665 0.326972 0
vt 0.400665 0.311733 0
vt 0.486568 0.329852 0
vt 0.402229 0.247586 0
vt 0.486527 0.25761 0
vt 0.398489 0.175197 0
vt 0.486618 0.175282 0
vt 0.40317 0.102993 0
vt 0.486508 0.0932927 0
vt 0.400665 0.0373659 0
vt 0.486568 0.0192464 0
vt 0.400665 0.0221248 0
vt 0.486568 0.0019924 0
vt 0.557482 0.981143 0
vt 0.471579 0.998008 0
vt 0.471579 0.6886 0
vt 0.557482 0.705464 0
vt 0.158736 0.0019924 0
vt 0.24464 0.0221248 0
vt 0.310543 0.0979188 0
vt 0.315182 0.0278872 0
vt 0.319197 0.175241 0
vt 0.312278 0.25283 0
vt 0.315182 0.321211 0
vt 0.315182 0.337505 0
vt 0.00188184 0.989953 0
vt 0.00188184 0.696629 0
vt 0.33012 0.337505 0
vt 0.33012 0.321211 0
vt 0.333026 0.25283 0
vt 0.326105 0.175241 0
vt 0.33476 0.0979188 0
vt 0.33012 0.0278872 0
vt 0.33012 0.0115927 0
vt 0.628025 0.989965 0
vt 0.628025 0.696642 0
vt 0.315182 0.0115927 0

# 174 vertex normals
vn -0.646865 -0.756783 0.0940431
vn -0.64901 -0.759292 -0.0475568
vn -0.649025 -0.759311 -0.0470479
vn -0.646865 -0.756783 0.0940431
vn 0 -0.707107 0.707106
vn -0.646699 -0.0967157 0.756588
vn -0.648426 0.063678 0.75861
vn -0.648492 0.0620648 0.758687
vn -0.646699 -0.0967157 0.756588
vn 0.646866 -0.756783 0.0940431
vn 0.649025 -0.759311 -0.0470478
vn 0.64901 -0.759292 -0.0475568
vn 0.646866 -0.756783 0.0940431
vn 0.6467 -0.0967157 0.756588
vn 0.648493 0.0620644 0.758686
vn 0.648427 0.0636781 0.758609
vn 0.6467 -0.0967157 0.756588
vn -0.646866 0.756783 0.0940431
vn -0.649025 0.75931 -0.0470479
vn -0.64901 0.759292 -0.0475568
vn 0 0.707107 0.707106
vn 0.646865 0.756783 0.0940431
vn 0.64901 0.759292 -0.0475569
vn 0.649025 0.759311 -0.047048
vn -0.648427 0.063678 -0.758609
vn -0.6467 -0.0967157 -0.756588
vn -0.6467 -0.0967156 -0.756588
vn -0.648493 0.0620644 -0.758686
vn 0 0.707107 -0.707106
vn 0.648492 0.0620648 -0.758687
vn 0.646699 -0.0967157 -0.756588
vn 0.646699 -0.0967157 -0.756588
vn 0.648426 0.0636779 -0.75861
vn 0 -0.707107 -0.707106
vn 0 -0.0873999 0.996173
vn 0 0.0592404 0.998244
vn 0 -0.0873999 0.996173
vn 0 0.997721 0.0674674
vn 0 0.999326 -0.0367184
vn 0 0.0592404 -0.998244
vn 0 -0.0873999 -0.996173
vn 0 -0.999326 -0.0367185
vn 0 -0.997721 0.0674674
vn 0.996309 -0.0473287 0.0716146
vn 0.997963 -0.0512782 -0.0379523
vn 0.998544 0.0370277 -0.0392192
vn 0.996894 0.0277469 0.0736986
vn -0.996309 -0.0473287 0.0716147
vn -0.996894 0.0277471 0.0736987
vn -0.998544 0.0370278 -0.0392192
vn -0.997963 -0.0512782 -0.0379523
vn -0.517265 -0.60516 0.60516
vn -0.517265 -0.60516 0.60516
vn 0.517265 -0.60516 0.60516
vn 0.517265 -0.60516 0.60516
vn -0.517265 0.60516 0.60516
vn -0.517265 0.60516 0.60516
vn 0.517265 0.60516 0.60516
vn 0.517265 0.60516 0.60516
vn -0.517265 0.60516 -0.60516
vn -0.517265 0.60516 -0.60516
vn 0.517265 0.60516 -0.60516
vn 0.517265 0.60516 -0.60516
vn -0.517265 -0.605161 -0.605159
vn -0.517265 -0.605161 -0.605159
vn -0.517265 -0.605161 -0.605159
vn 0.517265 -0.605161 -0.605159
vn 0.517265 -0.605161 -0.605159
vn 0 -0.0212309 0.999775
vn 0 -0.0595217 0.998227
vn 0 -0.0595217 0.998227
vn 0 -0.0212309 0.999775
vn 0.649546 -0.0247955 0.759918
vn 0.648511 -0.0616077 0.758708
vn 0.648425 -0.0637238 0.758607
vn 0.649564 -0.0236524 0.759939
vn 0.997077 -0.01021 0.0757245
vn 0.999326 -0.0123673 -0.0345527
vn 0.998471 -0.0384316 -0.0397425
vn 0.996942 -0.0271356 0.0732843
vn 0.648511 -0.0616077 -0.758708
vn 0.649545 -0.0247957 -0.759918
vn 0.649563 -0.0236521 -0.759939
vn 0.648425 -0.0637239 -0.758607
vn 0 -0.0595217 -0.998227
vn 0 -0.0212309 -0.999775
vn 0 -0.0212309 -0.999775
vn 0 -0.0595217 -0.998227
vn -0.648425 -0.0637238 -0.758607
vn -0.649564 -0.0236525 -0.759939
vn -0.649546 -0.0247956 -0.759918
vn -0.648511 -0.0616077 -0.758708
vn -0.997077 -0.01021 0.0757245
vn -0.996942 -0.0271356 0.0732842
vn -0.998471 -0.0384316 -0.0397425
vn -0.999326 -0.0123672 -0.0345527
vn -0.649563 -0.0236521 0.759939
vn -0.648425 -0.0637239 0.758607
vn -0.648511 -0.0616077 0.758708
vn -0.649545 -0.0247957 0.759918
vn 0 0.135552 0.99077
vn 0.642544 0.148467 0.751727
vn 0.642544 0.148467 0.751727
vn 0.996308 0.0776666 -0.036593
vn 0.994941 0.0716921 0.0703712
vn 0.642544 0.148467 -0.751728
vn 0.642544 0.148467 -0.751728
vn 0 0.135552 -0.99077
vn 0 0.135552 -0.99077
vn -0.642544 0.148467 -0.751728
vn -0.642544 0.148467 -0.751728
vn -0.994941 0.0716922 0.0703712
vn -0.996308 0.0776669 -0.036593
vn -0.642544 0.148467 0.751728
vn -0.642544 0.148467 0.751728
vn -0.998501 -0.0383842 0.0390074
vn -0.999652 -0.0263921 2.7829e-05
vn -0.996519 0.0833545 0.00160974
vn -0.996404 0.0776068 0.0339941
vn -0.999371 -0.0122924 0.0332565
vn -0.999916 -0.0129466 5.45983e-05
vn -0.998577 0.0370013 0.038399
vn -0.999596 0.0284271 4.48451e-05
vn -0.99806 -0.0512342 0.0353751
vn -0.998486 -0.0549899 0.0016246
vn -0.649745 0.760152 5.26179e-05
vn -0.649063 0.759354 0.0458067
vn -0.649054 0.759344 0.0460946
vn -0.649745 0.760152 0.000229476
vn 0 0.999999 0.00137958
vn 0 0.999406 0.0344771
vn 0.649745 0.760152 0.00022938
vn 0.649054 0.759344 0.0460946
vn 0.649063 0.759354 0.0458067
vn 0.649745 0.760152 5.25326e-05
vn 0.998486 -0.0549899 0.00162465
vn 0.99806 -0.0512342 0.0353751
vn 0.998577 0.0370013 0.038399
vn 0.999596 0.0284271 4.48678e-05
vn 0.999371 -0.0122924 0.0332565
vn 0.999916 -0.0129466 5.46107e-05
vn 0.998501 -0.0383841 0.0390074
vn 0.999652 -0.0263921 2.78194e-05
vn 0.996404 0.0776071 0.0339941
vn 0.996519 0.0833547 0.00160973
vn 0.649745 -0.760152 5.25421e-05
vn 0.649063 -0.759354 0.0458065
vn 0.649054 -0.759344 0.0460944
vn 0.649745 -0.760152 0.000229371
vn 0 -0.999406 0.0344771
vn 0 -0.999999 0.00137958
vn -0.649745 -0.760153 0.000229371
vn -0.649054 -0.759344 0.0460945
vn -0.649063 -0.759354 0.0458065
vn -0.649745 -0.760152 5.25326e-05
vn -0.996246 -0.02621 -0.0825107
vn -0.994355 0.0704837 -0.079308
vn -0.996312 -0.00999133 -0.0852148
vn -0.996189 0.0269015 -0.0829714
vn -0.995652 -0.0465526 -0.0806804
vn -0.646097 0.755885 -0.105816
vn 0 0.997111 -0.0759573
vn 0.646097 0.755885 -0.105816
vn 0.646097 0.755885 -0.105816
vn 0.995652 -0.0465526 -0.0806804
vn 0.996189 0.0269014 -0.0829713
vn 0.996312 -0.00999132 -0.0852148
vn 0.996246 -0.02621 -0.0825107
vn 0.994355 0.0704837 -0.0793079
vn 0.646097 -0.755884 -0.105816
vn 0.646097 -0.755884 -0.105816
vn 0 -0.997111 -0.0759573
vn -0.646097 -0.755884 -0.105816
vn -0.646097 -0.755884 -0.105816

# Mesh 'pCube1_pCube1' with 176 faces
g pCube1_pCube1
usemtl lambert1
f  1/1/1 2/2/2 3/3/3
f  3/3/3 4/4/4 1/1/1
f  5/5/5 6/6/5 7/7/5
f  7/7/5 8/8/5 5/5/5
f  9/9/6 10/10/7 11/11/8
f  11/11/8 12/12/9 9/9/6
f  13/13/10 14/14/11 15/15/12
f  15/15/12 16/16/13 13/13/10
f  17/17/14 18/18/15 19/19/16
f  19/19/16 20/20/17 17/17/14
f  21/21/18 22/22/19 23/23/20
f  23/23/20 24/24/18 21/21/18
f  25/25/21 26/26/21 12/12/21
f  12/12/21 17/17/21 25/25/21
f  27/27/22 28/28/23 29/29/24
f  29/29/24 30/30/22 27/27/22
f  31/31/25 21/32/26 32/33/27
f  32/33/27 33/34/28 31/31/25
f  34/35/29 32/33/29 24/36/29
f  24/36/29 27/37/29 34/35/29
f  35/38/30 34/35/31 30/39/32
f  30/39/32 36/40/33 35/38/30
f  16/41/34 1/42/34 37/43/34
f  37/43/34 38/44/34 16/41/34
f  12/12/35 11/11/36 18/18/36
f  18/18/36 17/17/37 12/12/35
f  24/45/38 23/46/39 28/47/39
f  28/47/39 27/48/38 24/45/38
f  33/34/40 32/33/41 34/35/41
f  34/35/41 35/38/40 33/34/40
f  2/49/42 1/50/43 16/51/43
f  16/51/43 15/52/42 2/49/42
f  30/30/44 29/29/45 39/53/46
f  39/53/46 36/54/47 30/30/44
f  21/21/48 31/55/49 40/56/50
f  40/56/50 22/22/51 21/21/48
f  7/7/52 6/6/53 41/57/53
f  42/58/54 5/5/54 8/8/55
f  9/9/56 12/12/56 26/26/57
f  25/25/58 17/17/59 20/20/59
f  21/32/60 24/36/61 32/33/60
f  34/35/62 27/37/63 30/39/62
f  4/59/64 37/43/65 1/42/66
f  16/41/67 38/44/68 13/60/67
f  43/61/69 44/62/70 45/63/71
f  45/63/71 46/64/72 43/61/69
f  46/64/73 45/63/74 47/65/75
f  47/65/75 48/66/76 46/64/73
f  49/67/77 50/68/78 51/69/79
f  51/69/79 52/70/80 49/67/77
f  53/71/81 54/72/82 49/73/83
f  49/73/83 52/74/84 53/71/81
f  55/75/85 56/76/86 54/72/87
f  54/72/87 53/71/88 55/75/85
f  57/77/89 58/78/90 56/76/91
f  56/76/91 55/75/92 57/77/89
f  58/79/93 57/80/94 59/81/95
f  59/81/95 60/82/96 58/79/93
f  61/83/97 62/84/98 44/62/99
f  44/62/99 43/61/100 61/83/97
f  44/62/70 6/6/101 5/5/101
f  5/5/101 45/63/71 44/62/70
f  45/63/74 5/5/102 42/58/103
f  42/58/103 47/65/75 45/63/74
f  52/70/80 51/69/79 14/14/104
f  14/14/104 13/13/105 52/70/80
f  38/44/106 53/71/81 52/74/84
f  52/74/84 13/60/107 38/44/106
f  37/43/108 55/75/85 53/71/88
f  53/71/88 38/44/109 37/43/108
f  4/59/110 57/77/89 55/75/92
f  55/75/92 37/43/111 4/59/110
f  57/80/94 4/4/112 3/3/113
f  3/3/113 59/81/95 57/80/94
f  62/84/98 41/57/114 6/6/115
f  6/6/115 44/62/99 62/84/98
f  11/11/36 43/61/69 46/64/72
f  46/64/72 18/18/36 11/11/36
f  10/10/7 61/83/97 43/61/100
f  43/61/100 11/11/8 10/10/7
f  31/55/49 58/79/93 60/82/96
f  60/82/96 40/56/50 31/55/49
f  58/78/90 31/31/25 33/34/28
f  33/34/28 56/76/91 58/78/90
f  56/76/86 33/34/40 35/38/40
f  35/38/40 54/72/87 56/76/86
f  54/72/82 35/38/30 36/40/33
f  36/40/33 49/73/83 54/72/82
f  36/54/47 39/53/46 50/68/78
f  50/68/78 49/67/77 36/54/47
f  18/18/15 46/64/73 48/66/76
f  48/66/76 19/19/16 18/18/15
f  63/85/116 64/86/117 65/87/118
f  65/87/118 66/88/119 63/85/116
f  67/89/120 68/90/121 64/86/117
f  64/86/117 63/85/116 67/89/120
f  69/91/122 70/92/123 68/90/121
f  68/90/121 67/89/120 69/91/122
f  71/93/124 72/94/125 70/92/123
f  70/92/123 69/91/122 71/93/124
f  72/94/126 71/93/127 73/95/128
f  73/95/128 74/96/129 72/94/126
f  74/97/130 73/98/131 75/99/131
f  75/99/131 76/100/130 74/97/130
f  76/101/132 75/102/133 77/103/134
f  77/103/134 78/104/135 76/101/132
f  78/104/136 77/103/137 79/105/138
f  79/105/138 80/106/139 78/104/136
f  80/106/139 79/105/138 81/107/140
f  81/107/140 82/108/141 80/106/139
f  82/108/141 81/107/140 83/109/142
f  83/109/142 84/110/143 82/108/141
f  84/110/143 83/109/142 85/111/144
f  85/111/144 86/112/145 84/110/143
f  86/112/146 85/111/147 87/113/148
f  87/113/148 88/114/149 86/112/146
f  89/115/150 90/116/151 88/117/151
f  88/117/151 87/118/150 89/115/150
f  90/119/152 89/120/153 66/88/154
f  66/88/154 65/87/155 90/119/152
f  62/121/156 63/85/116 66/88/119
f  66/88/119 41/122/157 62/121/156
f  61/123/158 67/89/120 63/85/116
f  63/85/116 62/121/156 61/123/158
f  10/124/159 69/91/122 67/89/120
f  67/89/120 61/123/158 10/124/159
f  9/125/160 71/93/124 69/91/122
f  69/91/122 10/124/159 9/125/160
f  71/93/127 9/125/161 26/126/161
f  26/126/161 73/95/128 71/93/127
f  73/98/131 26/127/162 25/128/162
f  25/128/162 75/99/131 73/98/131
f  75/102/133 25/129/163 20/130/164
f  20/130/164 77/103/134 75/102/133
f  20/130/165 19/131/166 79/105/138
f  79/105/138 77/103/137 20/130/165
f  19/131/166 48/132/167 81/107/140
f  81/107/140 79/105/138 19/131/166
f  48/132/167 47/133/168 83/109/142
f  83/109/142 81/107/140 48/132/167
f  47/133/168 42/134/169 85/111/144
f  85/111/144 83/109/142 47/133/168
f  85/111/147 42/134/170 8/135/171
f  8/135/171 87/113/148 85/111/147
f  7/136/172 89/115/150 87/118/150
f  87/118/150 8/137/172 7/136/172
f  89/120/153 7/138/173 41/122/174
f  41/122/174 66/88/154 89/120/153
f  64/86/117 59/81/95 3/3/113
f  3/3/113 65/87/118 64/86/117
f  2/2/2 90/119/152 65/87/155
f  65/87/155 3/3/3 2/2/2
f  90/116/151 2/49/42 15/52/42
f  15/52/42 88/117/151 90/116/151
f  14/14/11 86/112/146 88/114/149
f  88/114/149 15/15/12 14/14/11
f  51/69/79 84/110/143 86/112/145
f  86/112/145 14/14/104 51/69/79
f  50/68/78 82/108/141 84/110/143
f  84/110/143 51/69/79 50/68/78
f  39/53/46 80/106/139 82/108/141
f  82/108/141 50/68/78 39/53/46
f  29/29/45 78/104/136 80/106/139
f  80/106/139 39/53/46 29/29/45
f  28/28/23 76/101/132 78/104/135
f  78/104/135 29/29/24 28/28/23
f  23/46/39 74/97/130 76/100/130
f  76/100/130 28/47/39 23/46/39
f  22/22/19 72/94/126 74/96/129
f  74/96/129 23/23/20 22/22/19
f  72/94/125 22/22/51 40/56/50
f  40/56/50 70/92/123 72/94/125
f  70/92/123 40/56/50 60/82/96
f  60/82/96 68/90/121 70/92/123
f  68/90/121 60/82/96 59/81/95
f  59/81/95 64/86/117 68/90/121

