# This file uses centimeters as units for non-parametric coordinates.

mtllib KitchenShelf.mtl
g default
v -50.040032 -0.000001 19.285345
v 49.959968 -0.000001 19.285345
v -50.040032 96.763526 19.285345
v 49.959968 96.763526 19.285345
v -50.040032 96.763526 -20.714655
v 49.959968 96.763526 -20.714655
v -50.040032 -0.000001 -20.714655
v 49.959968 -0.000001 -20.714655
v -50.040032 92.155258 19.285345
v -50.040032 92.155258 -20.714655
v 49.959968 92.155258 -20.714655
v 49.959968 92.155258 19.285345
v -45.151909 96.763526 19.285345
v -45.151909 96.763526 -20.714655
v -45.151909 92.155258 -20.714655
v -45.151909 -0.000001 -20.714655
v -45.151909 -0.000001 19.285345
v -45.151909 92.155258 19.285345
v 45.071876 96.763519 19.285345
v 45.071876 96.763519 -20.714655
v 45.071876 92.155258 -20.714655
v 45.071876 0.000003 -20.714655
v 45.071876 0.000003 19.285345
v 45.071876 92.155258 19.285345
v 49.959968 5.238098 19.285345
v 45.071876 5.238101 19.285345
v -45.151940 5.238098 19.285345
v -50.040032 5.238098 19.285345
v -50.040032 5.238098 -20.714655
v -45.151909 5.238098 -20.714655
v 45.071876 5.238101 -20.714655
v 49.959968 5.238098 -20.714655
v -45.151909 73.890060 19.285345
v -50.040032 73.890060 19.285345
v -50.040032 73.890060 -20.714655
v -45.151909 73.890060 -20.714655
v 45.071876 73.890060 -20.714655
v 49.959968 73.890060 -20.714655
v 49.959968 73.890060 19.285345
v 45.071876 73.890060 19.285345
v -45.151909 69.796134 19.285345
v -50.040032 69.796134 19.285345
v -50.040032 69.796134 -20.714655
v -45.151909 69.796134 -20.714655
v 45.071876 69.796134 -20.714655
v 49.959968 69.796134 -20.714655
v 49.959968 69.796134 19.285345
v 45.071876 69.796134 19.285345
v -45.151909 49.956352 19.285345
v -50.040032 49.956352 19.285345
v -50.040032 49.956352 -20.714655
v -45.151909 49.956352 -20.714655
v 45.071876 49.956352 -20.714655
v 49.959968 49.956352 -20.714655
v 49.959968 49.956352 19.285345
v 45.071876 49.956352 19.285345
v -45.151909 46.019882 19.285345
v -50.040032 46.019882 19.285345
v -50.040032 46.019882 -20.714655
v -45.151909 46.019882 -20.714655
v 45.071876 46.019885 -20.714655
v 49.959968 46.019882 -20.714655
v 49.959968 46.019882 19.285345
v 45.071876 46.019885 19.285345
v -45.151940 19.881751 19.285345
v -50.040032 19.881751 19.285345
v -50.040032 19.881751 -20.714655
v -45.151909 19.881751 -20.714655
v 45.071876 19.881755 -20.714655
v 49.959968 19.881751 -20.714655
v 49.959968 19.881751 19.285345
v 45.071876 19.881755 19.285345
v -45.151940 24.133136 19.285345
v -50.040032 24.133136 19.285345
v -50.040032 24.133136 -20.714655
v -45.151909 24.133136 -20.714655
v 45.071876 24.133138 -20.714655
v 49.959968 24.133136 -20.714655
v 49.959968 24.133136 19.285345
v 45.071876 24.133138 19.285345
v 45.071876 19.881755 -15.349268
v -45.151940 19.881751 -15.349268
v -45.151940 5.238098 -15.349268
v 45.071876 5.238101 -15.349268
v -45.151909 73.890060 -15.349268
v -45.151909 92.155258 -15.349268
v 45.071876 73.890060 -15.349268
v 45.071876 92.155258 -15.349268
v 45.071876 69.796134 -15.349268
v -45.151909 69.796134 -15.349268
v -45.151909 49.956352 -15.349268
v 45.071876 49.956352 -15.349268
v 45.071876 46.019885 -15.349268
v -45.151909 46.019882 -15.349268
v -45.151940 24.133136 -15.349268
v 45.071876 24.133138 -15.349268
vt 0.375000 0.000000
vt 0.625000 0.000000
vt 0.375000 0.250000
vt 0.625000 0.250000
vt 0.375000 0.500000
vt 0.625000 0.500000
vt 0.375000 0.750000
vt 0.625000 0.750000
vt 0.375000 1.000000
vt 0.625000 1.000000
vt 0.875000 0.000000
vt 0.875000 0.250000
vt 0.125000 0.000000
vt 0.125000 0.250000
vt 0.375000 0.238094
vt 0.125000 0.238094
vt 0.375000 0.511906
vt 0.625000 0.511906
vt 0.875000 0.238094
vt 0.625000 0.238094
vt 0.387220 0.250000
vt 0.387220 0.500000
vt 0.387220 0.511906
vt 0.387220 0.750000
vt 0.387220 0.000000
vt 0.387220 1.000000
vt 0.387220 0.238094
vt 0.612780 0.250000
vt 0.612780 0.500000
vt 0.612780 0.511906
vt 0.612780 0.750000
vt 0.612780 0.000000
vt 0.612780 1.000000
vt 0.612780 0.238094
vt 0.625000 0.013533
vt 0.612780 0.013533
vt 0.387220 0.013533
vt 0.375000 0.013533
vt 0.125000 0.013533
vt 0.375000 0.736467
vt 0.387220 0.736467
vt 0.612780 0.736467
vt 0.625000 0.736467
vt 0.875000 0.013533
vt 0.387220 0.190904
vt 0.375000 0.190904
vt 0.125000 0.190904
vt 0.375000 0.559096
vt 0.387220 0.559096
vt 0.612780 0.559096
vt 0.625000 0.559096
vt 0.875000 0.190904
vt 0.625000 0.190904
vt 0.612780 0.190904
vt 0.387220 0.180327
vt 0.375000 0.180327
vt 0.125000 0.180327
vt 0.375000 0.569673
vt 0.387220 0.569673
vt 0.612780 0.569673
vt 0.625000 0.569673
vt 0.875000 0.180327
vt 0.625000 0.180327
vt 0.612780 0.180327
vt 0.387220 0.129068
vt 0.375000 0.129068
vt 0.125000 0.129068
vt 0.375000 0.620932
vt 0.387220 0.620932
vt 0.612780 0.620932
vt 0.625000 0.620932
vt 0.875000 0.129068
vt 0.625000 0.129068
vt 0.612780 0.129068
vt 0.387220 0.118898
vt 0.375000 0.118898
vt 0.125000 0.118898
vt 0.375000 0.631102
vt 0.387220 0.631102
vt 0.612780 0.631102
vt 0.625000 0.631102
vt 0.875000 0.118898
vt 0.625000 0.118898
vt 0.612780 0.118898
vt 0.387220 0.051367
vt 0.375000 0.051367
vt 0.125000 0.051367
vt 0.375000 0.698633
vt 0.387220 0.698633
vt 0.612780 0.698633
vt 0.625000 0.698633
vt 0.875000 0.051367
vt 0.625000 0.051367
vt 0.612780 0.051367
vt 0.387220 0.062351
vt 0.375000 0.062351
vt 0.125000 0.062351
vt 0.375000 0.687649
vt 0.387220 0.687649
vt 0.612780 0.687649
vt 0.625000 0.687649
vt 0.875000 0.062351
vt 0.625000 0.062351
vt 0.612780 0.062351
vt 0.612780 0.051367
vt 0.387220 0.051367
vt 0.387220 0.013533
vt 0.612780 0.013533
vt 0.387220 0.238094
vt 0.387220 0.190904
vt 0.612780 0.190904
vt 0.612780 0.238094
vt 0.612780 0.180327
vt 0.387220 0.180327
vt 0.387220 0.129068
vt 0.612780 0.129068
vt 0.612780 0.118898
vt 0.387220 0.118898
vt 0.387220 0.062351
vt 0.612780 0.062351
vn 0.000000 0.000000 1.000000
vn 0.000000 0.000000 1.000000
vn 0.000000 0.000000 1.000000
vn 0.000000 0.000000 1.000000
vn 0.000000 1.000000 0.000000
vn 0.000000 1.000000 0.000000
vn 0.000000 1.000000 0.000000
vn 0.000000 1.000000 0.000000
vn 0.000000 0.000000 -1.000000
vn -0.000000 0.000000 -1.000000
vn 0.000000 0.000000 -1.000000
vn 0.000000 0.000000 -1.000000
vn 0.000000 -1.000000 0.000000
vn 0.000000 -1.000000 0.000000
vn 0.000000 -1.000000 0.000000
vn 0.000000 -1.000000 0.000000
vn 1.000000 0.000000 0.000000
vn 1.000000 0.000000 0.000000
vn 1.000000 0.000000 0.000000
vn 1.000000 0.000000 0.000000
vn -1.000000 0.000000 0.000000
vn -1.000000 0.000000 0.000000
vn -1.000000 0.000000 0.000000
vn -1.000000 0.000000 0.000000
vn -1.000000 0.000000 0.000000
vn -1.000000 0.000000 0.000000
vn -1.000000 0.000000 0.000000
vn -1.000000 0.000000 0.000000
vn 0.000000 0.000000 -1.000000
vn 0.000000 0.000000 -1.000000
vn 0.000000 0.000000 -1.000000
vn 0.000000 0.000000 -1.000000
vn 1.000000 0.000000 0.000000
vn 1.000000 0.000000 0.000000
vn 1.000000 0.000000 0.000000
vn 1.000000 0.000000 0.000000
vn 0.000000 0.000000 1.000000
vn 0.000000 0.000000 1.000000
vn 0.000000 0.000000 1.000000
vn 0.000000 0.000000 1.000000
vn 0.000000 1.000000 0.000000
vn 0.000000 1.000000 0.000000
vn 0.000000 0.000000 -1.000000
vn 0.000000 0.000000 -1.000000
vn 0.000000 0.000000 -1.000000
vn 0.000000 0.000000 -1.000000
vn 0.000000 -1.000000 0.000000
vn 0.000000 -1.000000 0.000000
vn 0.000000 0.000000 1.000000
vn 0.000000 0.000000 1.000000
vn 0.000000 0.000000 1.000000
vn 0.000000 0.000000 1.000000
vn -0.000002 1.000000 0.000000
vn -0.000002 1.000000 0.000000
vn 0.000000 0.000000 -1.000000
vn 0.000000 0.000000 -1.000000
vn 0.000000 0.000000 -1.000000
vn 0.000000 0.000000 -1.000000
vn -0.000001 -1.000000 0.000000
vn -0.000001 -1.000000 0.000000
vn 0.000000 0.000000 1.000000
vn 0.000000 0.000000 1.000000
vn 0.000000 0.000000 1.000000
vn 0.000000 0.000000 1.000000
vn 0.000000 0.000000 1.000000
vn 0.000000 0.000000 1.000000
vn 0.000000 0.000000 1.000000
vn 0.000000 0.000000 1.000000
vn 0.000000 0.000000 1.000000
vn 0.000000 0.000000 1.000000
vn 0.000000 0.000000 1.000000
vn 0.000000 0.000000 1.000000
vn -1.000000 0.000000 0.000000
vn -1.000000 0.000000 0.000000
vn 0.000000 0.000000 -1.000000
vn -0.000000 0.000000 -1.000000
vn -0.000000 0.000000 -1.000000
vn 0.000000 0.000000 -1.000000
vn 1.000000 0.000000 0.000000
vn 1.000000 0.000000 0.000000
vn 0.000000 0.000000 1.000000
vn 0.000000 0.000000 1.000000
vn -1.000000 0.000000 0.000000
vn -1.000000 0.000000 0.000000
vn 0.000000 0.000000 -1.000000
vn 0.000000 0.000000 -1.000000
vn 0.000000 0.000000 -1.000000
vn 0.000000 0.000000 -1.000000
vn 1.000000 0.000000 0.000000
vn 1.000000 0.000000 0.000000
vn 0.000000 0.000000 1.000000
vn 0.000000 0.000000 1.000000
vn 0.000000 0.000000 1.000000
vn 0.000000 0.000000 1.000000
vn 0.000000 0.000000 1.000000
vn 0.000000 0.000000 1.000000
vn 0.000000 0.000000 1.000000
vn 0.000000 0.000000 1.000000
vn -1.000000 0.000000 0.000000
vn -1.000000 0.000000 0.000000
vn 0.000000 0.000000 -1.000000
vn 0.000000 0.000000 -1.000000
vn 0.000000 0.000000 -1.000000
vn 0.000000 0.000000 -1.000000
vn 1.000000 0.000000 0.000000
vn 1.000000 0.000000 0.000000
vn 0.000000 0.000000 1.000000
vn 0.000000 0.000000 1.000000
vn 0.000000 0.000000 1.000000
vn 0.000000 0.000000 1.000000
vn -1.000000 0.000000 0.000000
vn -1.000000 0.000000 0.000000
vn 0.000000 0.000000 -1.000000
vn 0.000000 0.000000 -1.000000
vn 0.000000 0.000000 -1.000000
vn 0.000000 0.000000 -1.000000
vn 1.000000 0.000000 0.000000
vn 1.000000 0.000000 0.000000
vn 0.000000 0.000000 1.000000
vn 0.000000 0.000000 1.000000
vn 0.000000 0.000000 1.000000
vn 0.000000 0.000000 1.000000
vn 0.000000 0.000000 1.000000
vn 0.000000 0.000000 1.000000
vn 0.000000 0.000000 1.000000
vn 0.000000 0.000000 1.000000
vn -1.000000 0.000000 0.000000
vn -1.000000 0.000000 0.000000
vn 0.000000 0.000000 -1.000000
vn 0.000000 0.000000 -1.000000
vn 0.000000 0.000000 -1.000000
vn 0.000000 0.000000 -1.000000
vn 1.000000 0.000000 0.000000
vn 1.000000 0.000000 0.000000
vn -0.000000 0.000000 1.000000
vn -0.000000 0.000000 1.000000
vn 0.000000 0.000000 1.000000
vn 0.000000 0.000000 1.000000
vn -1.000000 0.000000 0.000000
vn -1.000000 0.000000 0.000000
vn 0.000000 0.000000 -1.000000
vn 0.000000 0.000000 -1.000000
vn 0.000000 0.000000 -1.000000
vn 0.000000 0.000000 -1.000000
vn 1.000000 0.000000 0.000000
vn 1.000000 0.000000 0.000000
vn -0.000000 0.000000 1.000000
vn -0.000000 0.000000 1.000000
vn 0.000000 0.000000 1.000000
vn 0.000000 0.000000 1.000000
vn 0.000000 0.000000 1.000000
vn 0.000000 0.000000 1.000000
vn 0.000000 -1.000000 0.000000
vn 0.000000 -1.000000 0.000000
vn 0.000000 -1.000000 0.000000
vn 0.000000 -1.000000 0.000000
vn 1.000000 0.000000 0.000000
vn 1.000000 0.000000 0.000000
vn 1.000000 0.000000 0.000000
vn 1.000000 0.000000 0.000000
vn -0.000000 1.000000 0.000000
vn -0.000000 1.000000 0.000000
vn -0.000000 1.000000 0.000000
vn -0.000000 1.000000 0.000000
vn -1.000000 0.000000 0.000000
vn -1.000000 0.000000 0.000000
vn -1.000000 0.000000 0.000000
vn -1.000000 0.000000 0.000000
vn 1.000000 0.000000 0.000000
vn 1.000000 0.000000 0.000000
vn 1.000000 0.000000 0.000000
vn 1.000000 0.000000 0.000000
vn 0.000000 1.000000 0.000000
vn 0.000000 1.000000 0.000000
vn 0.000000 1.000000 0.000000
vn 0.000000 1.000000 0.000000
vn -1.000000 0.000000 0.000000
vn -1.000000 0.000000 0.000000
vn -1.000000 0.000000 0.000000
vn -1.000000 0.000000 0.000000
vn 0.000000 -1.000000 0.000000
vn 0.000000 -1.000000 0.000000
vn 0.000000 -1.000000 0.000000
vn 0.000000 -1.000000 0.000000
vn 0.000000 -1.000000 0.000000
vn 0.000000 -1.000000 0.000000
vn 0.000000 -1.000000 0.000000
vn 0.000000 -1.000000 0.000000
vn 1.000000 0.000000 0.000000
vn 1.000000 0.000000 0.000000
vn 1.000000 0.000000 0.000000
vn 1.000000 0.000000 0.000000
vn 0.000000 1.000000 0.000000
vn 0.000000 1.000000 0.000000
vn 0.000000 1.000000 0.000000
vn 0.000000 1.000000 0.000000
vn -1.000000 0.000000 0.000000
vn -1.000000 0.000000 0.000000
vn -1.000000 0.000000 0.000000
vn -1.000000 0.000000 0.000000
vn 0.000000 -1.000000 0.000000
vn 0.000000 -1.000000 0.000000
vn 0.000000 -1.000000 0.000000
vn 0.000000 -1.000000 0.000000
vn 1.000000 -0.000001 0.000000
vn 1.000000 -0.000001 0.000000
vn 1.000000 -0.000001 0.000000
vn 1.000000 -0.000001 0.000000
vn -0.000000 1.000000 0.000000
vn -0.000000 1.000000 0.000000
vn -0.000000 1.000000 0.000000
vn -0.000000 1.000000 0.000000
vn -1.000000 0.000000 0.000000
vn -1.000000 0.000000 0.000000
vn -1.000000 0.000000 0.000000
vn -1.000000 0.000000 0.000000
s 1
g pCube7
usemtl initialShadingGroup
f 1/1/1 17/25/2 27/37/3 28/38/4
s 2
f 3/3/5 13/21/6 14/22/7 5/5/8
s 3
f 29/40/9 30/41/10 16/24/11 7/7/12
s 4
f 7/7/13 16/24/14 17/26/15 1/9/16
s 5
f 2/2/17 8/11/18 32/44/19 25/35/20
s 6
f 7/13/21 1/1/22 28/38/23 29/39/24
f 10/16/25 9/15/26 3/3/27 5/14/28
s 3
f 5/5/29 14/22/30 15/23/31 10/17/32
s 5
f 12/20/33 11/19/34 6/12/35 4/4/36
s 1
f 9/15/37 18/27/38 13/21/39 3/3/40
s 2
f 13/21/6 19/28/41 20/29/42 14/22/7
s 3
f 15/23/31 14/22/30 20/29/43 21/30/44
f 16/24/11 30/41/10 31/42/45 22/31/46
s 4
f 17/26/15 16/24/14 22/31/47 23/33/48
s 1
f 27/37/3 17/25/2 23/32/49 26/36/50
f 13/21/39 18/27/38 24/34/51 19/28/52
s 2
f 19/28/41 4/4/53 6/6/54 20/29/42
s 3
f 21/30/44 20/29/43 6/6/55 11/18/56
f 22/31/46 31/42/45 32/43/57 8/8/58
s 4
f 23/33/48 22/31/47 8/8/59 2/10/60
s 1
f 26/36/50 23/32/49 2/2/61 25/35/62
f 19/28/52 24/34/51 12/20/63 4/4/64
f 72/94/65 26/36/50 25/35/62 71/93/66
s off
f 81/105/67 82/106/68 83/107/69 84/108/70
s 1
f 28/38/4 27/37/3 65/85/71 66/86/72
s 6
f 29/39/24 28/38/23 66/86/73 67/87/74
s 3
f 67/88/75 68/89/76 30/41/10 29/40/9
f 31/42/45 30/41/10 68/89/76 69/90/77
f 32/43/57 31/42/45 69/90/77 70/91/78
s 5
f 25/35/20 32/44/19 70/92/79 71/93/80
s 1
f 34/46/81 33/45/82 18/27/38 9/15/37
s 6
f 35/47/83 34/46/84 9/15/26 10/16/25
s 3
f 10/17/32 15/23/31 36/49/85 35/48/86
f 37/50/87 36/49/85 15/23/31 21/30/44
f 38/51/88 37/50/87 21/30/44 11/18/56
s 5
f 39/53/89 38/52/90 11/19/34 12/20/33
s 1
f 24/34/51 40/54/91 39/53/92 12/20/63
s off
f 86/109/93 85/110/94 87/111/95 88/112/96
s 1
f 42/56/97 41/55/98 33/45/82 34/46/81
s 6
f 43/57/99 42/56/100 34/46/84 35/47/83
s 3
f 35/48/86 36/49/85 44/59/101 43/58/102
f 45/60/103 44/59/101 36/49/85 37/50/87
f 46/61/104 45/60/103 37/50/87 38/51/88
s 5
f 47/63/105 46/62/106 38/52/90 39/53/89
s 1
f 40/54/91 48/64/107 47/63/108 39/53/92
f 40/54/91 33/45/82 41/55/98 48/64/107
f 50/66/109 49/65/110 41/55/98 42/56/97
s 6
f 51/67/111 50/66/112 42/56/100 43/57/99
s 3
f 43/58/102 44/59/101 52/69/113 51/68/114
f 53/70/115 52/69/113 44/59/101 45/60/103
f 54/71/116 53/70/115 45/60/103 46/61/104
s 5
f 55/73/117 54/72/118 46/62/106 47/63/105
s 1
f 48/64/107 56/74/119 55/73/120 47/63/108
s off
f 89/113/121 90/114/122 91/115/123 92/116/124
s 1
f 58/76/125 57/75/126 49/65/110 50/66/109
s 6
f 59/77/127 58/76/128 50/66/112 51/67/111
s 3
f 51/68/114 52/69/113 60/79/129 59/78/130
f 61/80/131 60/79/129 52/69/113 53/70/115
f 62/81/132 61/80/131 53/70/115 54/71/116
s 5
f 63/83/133 62/82/134 54/72/118 55/73/117
s 1
f 56/74/119 64/84/135 63/83/136 55/73/120
f 56/74/119 49/65/110 57/75/126 64/84/135
f 66/86/72 65/85/71 73/95/137 74/96/138
s 6
f 67/87/74 66/86/73 74/96/139 75/97/140
s 3
f 75/98/141 76/99/142 68/89/76 67/88/75
f 69/90/77 68/89/76 76/99/142 77/100/143
f 70/91/78 69/90/77 77/100/143 78/101/144
s 5
f 71/93/80 70/92/79 78/102/145 79/103/146
s 1
f 80/104/147 72/94/65 71/93/66 79/103/148
f 80/104/147 73/95/137 65/85/71 72/94/65
f 74/96/138 73/95/137 57/75/126 58/76/125
s 6
f 75/97/140 74/96/139 58/76/128 59/77/127
s 3
f 59/78/130 60/79/129 76/99/142 75/98/141
f 77/100/143 76/99/142 60/79/129 61/80/131
f 78/101/144 77/100/143 61/80/131 62/81/132
s 5
f 79/103/146 78/102/145 62/82/134 63/83/133
s 1
f 64/84/135 80/104/147 79/103/148 63/83/136
s off
f 93/117/149 94/118/150 95/119/151 96/120/152
f 65/85/153 82/106/154 81/105/155 72/94/156
f 65/85/157 27/37/158 83/107/159 82/106/160
f 27/37/161 26/36/162 84/108/163 83/107/164
f 72/94/165 81/105/166 84/108/167 26/36/168
f 18/27/169 33/45/170 85/110/171 86/109/172
f 33/45/173 40/54/174 87/111/175 85/110/176
f 24/34/177 88/112/178 87/111/179 40/54/180
f 18/27/181 86/109/182 88/112/183 24/34/184
f 41/55/185 90/114/186 89/113/187 48/64/188
f 41/55/189 49/65/190 91/115/191 90/114/192
f 49/65/193 56/74/194 92/116/195 91/115/196
f 48/64/197 89/113/198 92/116/199 56/74/200
f 57/75/201 94/118/202 93/117/203 64/84/204
f 57/75/205 73/95/206 95/119/207 94/118/208
f 73/95/209 80/104/210 96/120/211 95/119/212
f 64/84/213 93/117/214 96/120/215 80/104/216
